<?xml version="1.0" encoding="utf-8"?>
<!-- Generator: Adobe Illustrator 26.0.2, SVG Export Plug-In . SVG Version: 6.00 Build 0)  -->
<svg version="1.1" id="Layer_1" xmlns="http://www.w3.org/2000/svg" xmlns:xlink="http://www.w3.org/1999/xlink" x="0px" y="0px"
	 viewBox="0 0 2041.81 792" style="enable-background:new 0 0 2041.81 792;" xml:space="preserve">
<style type="text/css">
	.st0{fill:#EAB065;stroke:#F6B228;stroke-miterlimit:10;}
	.st1{fill:#26B352;}
	.st2{fill:#4A4742;}
	.st3{fill:#5C95CF;}
	.st4{fill:#EA3A68;}
	.st5{fill:url(#SVGID_1_);}
	.st6{fill:url(#SVGID_00000034079777466144101820000017373097371454432896_);}
	.st7{fill:url(#SVGID_00000005974294020563609800000013419512355987413895_);}
	.st8{fill:url(#SVGID_00000075129910090895382720000002636021238408085143_);}
	.st9{fill:url(#SVGID_00000152252486022280397060000002617528910773944970_);}
	.st10{fill:url(#SVGID_00000075845709570568345350000007524939194594630537_);}
	.st11{fill:#58C9EF;}
</style>
<g>
	<path class="st0" d="M347.28,240.22c-35.5,213.77,9.39,490.3,9.39,490.3c-25.72,23.13-57.59-1.89-57.59-1.89
		c-17.99-270.96,2.76-431.28,20.28-512.09c9.8-21.42,19.09-40.44,23.38-46.65C342.74,169.89,344.24,206.68,347.28,240.22z"/>
	<g>
		<path class="st1" d="M359.6,147.83c0,0,31.06-69.64,139.5-75.61l-15.67,15.32c0,0,44.48-5.78,68.99,14.81l-57.55,19.31l5.79,17.26
			C500.66,138.92,398.99,171.03,359.6,147.83z"/>
		<path class="st1" d="M369.68,177.8c0,0,50.52,39.78,59.95,59.79l-5.73,2.01c0,0,23.92,49.91,23.1,59.04l-11.71-4.74
			c0,0,3.62,56.22-1.87,65.78c0,0-24.64-65.73-37.13-81.86l-8.05,6.84c0,0-33.16-65.96-28.61-81.63L369.68,177.8z"/>
		<path class="st1" d="M351.58,147.73c0,0,13.72-30.67,1.44-51.76s-19.95-18.92-19.95-18.92l-2.5,8.04L315.9,68.81
			C315.9,68.81,322.54,133.92,351.58,147.73z"/>
		<path class="st1" d="M338.48,152.12c0,0-23.74-46.91-45.35-52.87l0.73,3.68c0,0-40.95-16.8-60.68-13.58l1.99,2.94
			c0,0-39.58,4.28-79.96,32.43c0,0,44.1,8.61,54.78,6.43l-4.37,3.67c0,0,59.45,2.46,71.09,7.36l-1.69-5.04
			C275.04,137.14,336.28,149.12,338.48,152.12z"/>
		<path class="st1" d="M340.16,157.12c0,0-171.79,0.81-208.54,105.97l13.77-11.42c0,0-18.01,53.66-14.27,67.21
			c0,0,24.25-55.35,46.78-64.51l-2.62,12.48c0,0,41.33-29.47,49.58-44.24C233.13,207.83,299.63,168.71,340.16,157.12z"/>
		<path class="st1" d="M365.01,163.95c0,0,84.16,2.4,96.91,23.09l-8.96,4.96c0,0,14.31,17.23,12.82,26.29c0,0-16.61-7.28-22.97-13.3
			l-6.83,11.16L365.01,163.95z"/>
	</g>
</g>
<path class="st2" d="M605.18,415.21c0,0-134-25.87-234.88,3.1c0,0-21.52,26.39-52.93,26.39c-15.68-0.02-28.89-6.62-38.18-13.21
	c-9.28-6.59-14.65-13.18-14.65-13.18c-100.89-28.97-234.88-3.1-234.88-3.1c-9.32,3.96-3.45,44.32-3.45,44.32s16.55,1.72,28.97,53.46
	c12.42,51.73,18.97,93.81,116.58,93.81s112.78-80.7,120.03-104.5c7.24-23.8,23.34-23.46,23.34-23.46h4.58
	c0,0,16.09-0.34,23.34,23.46c7.24,23.79,22.42,104.5,120.02,104.5c97.61,0,104.17-42.08,116.58-93.81
	c12.42-51.74,28.97-53.46,28.97-53.46S614.49,419.17,605.18,415.21z M264.44,516.92c-17.36,70.12-57.33,68.34-91.52,68.84
	c-34.18,0.49-91.95,3.94-104.43-80.72c0,0-19.86-52.49,11.54-71.38c0,0,71.63-34,171.43,2.72
	C251.46,436.38,281.8,446.79,264.44,516.92z M566.34,505.03c-12.48,84.66-70.24,81.22-104.43,80.72
	c-34.18-0.49-74.15,1.29-91.52-68.84c-17.36-70.12,12.98-80.53,12.98-80.53c99.8-36.72,171.43-2.72,171.43-2.72
	C586.2,452.55,566.34,505.03,566.34,505.03z"/>
<path class="st3" d="M566.34,505.03c-12.48,84.66-70.24,81.22-104.43,80.72c-34.18-0.49-74.15,1.29-91.52-68.84
	c-17.36-70.12,12.98-80.53,12.98-80.53c99.8-36.72,171.43-2.72,171.43-2.72C586.2,452.55,566.34,505.03,566.34,505.03z"/>
<path class="st4" d="M264.44,516.92c-17.36,70.12-57.33,68.34-91.52,68.84c-34.18,0.49-91.95,3.94-104.43-80.72
	c0,0-19.86-52.49,11.54-71.38c0,0,71.63-34,171.43,2.72C251.46,436.38,281.8,446.79,264.44,516.92z"/>
<g>
	<g>
		<linearGradient id="SVGID_1_" gradientUnits="userSpaceOnUse" x1="807.2724" y1="370.1856" x2="897.9488" y2="213.1296">
			<stop  offset="0" style="stop-color:#7ACFDD"/>
			<stop  offset="1" style="stop-color:#F69783"/>
		</linearGradient>
		<path class="st5" d="M877.46,280.14c-0.89-0.07-1.95-0.39-2.77-0.7c-8.29-3.61-2.56-26.1-15.79-27.2
			c-13.49-0.29-29.73,24.89-35.31,42.74c-4.56,15.08-2.23,27.89,14.26,30.3c5.28,0.75,7.79-0.45,8.5-2.45
			c1.54-4.26-3.86-13.11-2.98-15.98c2.36-7.45,20.6-9.19,37.48-7.78c16.88,1.42,32.77,6.46,30.24,14.36
			c-2.08,6.32-17.12,10.45-21.51,21.62c-5.29,12.69,15.85,11.08,11.38,19.61c-2.95,5.18-23.16,8.09-45.07,7.9
			c-9.34-0.16-17.62-1.09-23.67-2.87c-8.73,1.23-24.47,1.83-25.34,1.82c-38.54,1.29-49.23-34.4-39.86-64.67
			c5.61-18.07,19.36-35.15,37.64-53.17c18.25-17.17,41.02-35.27,63.97-35.71c9.72-0.19,17.64,4.21,25.99,4.12
			c0.9-0.01,1.74,0.3,2.58,0.62c6.14,3.17,7.02,19.19,3.64,34.32C897.32,263.14,887.48,281.11,877.46,280.14z M877.16,225.91
			c-0.69,3.32,2.57,6.03,6.62,6.1c2.7,0.04,5.27-1.42,5.84-4.17c0.7-3.36-2.33-6.19-6.39-6.19
			C880.53,221.66,877.73,223.2,877.16,225.91z M886.54,309.54c-0.68,2.15,2.53,4.17,6.51,4.48c2.65,0.2,5.18-0.59,5.74-2.35
			c0.69-2.15-2.3-4.21-6.29-4.51C889.84,306.97,887.09,307.78,886.54,309.54z"/>
		
			<linearGradient id="SVGID_00000107562089440974050850000002085382874416532415_" gradientUnits="userSpaceOnUse" x1="958.9468" y1="386.9432" x2="1059.4371" y2="212.8888">
			<stop  offset="0" style="stop-color:#7ACFDD"/>
			<stop  offset="1" style="stop-color:#F69783"/>
		</linearGradient>
		<path style="fill:url(#SVGID_00000107562089440974050850000002085382874416532415_);" d="M953.28,295.86
			c2.89-10.18,4.62-21.23,5.27-32.3c0.85-14.74-5.87-25.19-3.74-35.33c2.47-11.84,21.14-18.77,38.32-19.05
			c13.25-0.25,26.5-0.51,39.75-0.78c45.91-0.24,51.72,31.49,46.31,50.89c-7.72,28.17-28.29,33.66-29.07,36.48
			c-1.19,3.59,9.83,14.4,11.5,36.39c0.93,10.3,19.17,8.58,13.09,21.43c-5.99,11.77-22.77,12.15-42.96,12.02
			c-24.74-0.71-36.75-1.5-31.67-9.93c6.64-9.88,15.4-46.51,2.1-47.04c-5.76,0.22-13.97,7.66-16.9,15.85
			c-0.8,2.23-1.99,5.53-2.33,9.69c-1.53,16.64,0.62,20.52-1.86,24.68c-3,4.55-15.36,5.56-37.29,5.25
			c-30.16-0.46-36.03-4.03-32.84-9.82c4.06-7.53,17.94-12.25,26.58-24.24C943.94,320.84,949.54,309.09,953.28,295.86z
			 M1022.78,252.54c-12.34,0.59-20.31,9.79-22.36,17.84c-2.67,10.47,5.93,15.13,15.28,14.66c8.02-0.45,16.71-4.83,19.03-13.55
			C1037.13,262.54,1032.43,252.11,1022.78,252.54z M1046.61,225.11c-0.86,3.73,2.64,7.77,6.69,7.57c2.02-0.1,4.11-1.38,4.69-3.8
			c0.87-3.62-2.63-7.77-6.68-7.64C1049.27,221.31,1047.18,222.63,1046.61,225.11z"/>
		
			<linearGradient id="SVGID_00000034090192016231112630000018373163586627693455_" gradientUnits="userSpaceOnUse" x1="1131.2921" y1="373.7526" x2="1228.0712" y2="206.1265">
			<stop  offset="0" style="stop-color:#7ACFDD"/>
			<stop  offset="1" style="stop-color:#F69783"/>
		</linearGradient>
		<path style="fill:url(#SVGID_00000034090192016231112630000018373163586627693455_);" d="M1097.17,312.55
			c14.6-43.58,62.98-112.59,109.07-110.42c45.83,0.83,58.5,42.53,41.95,90.98c-13.98,41.96-47.99,77.59-100.62,74.29
			C1095.15,365.29,1084.82,349.14,1097.17,312.55z M1201.36,284c7.54-22.27,5.96-46.2-7.52-45c-13.49,1.07-31.58,29.06-38.84,51.32
			c-5.92,18.12-4.83,31.91,11.66,30.11C1183.14,318.68,1195.22,302.24,1201.36,284z M1216.11,214.3c-0.96,2.8,2.41,5.78,6.46,5.49
			c2.03-0.14,4.15-1.17,4.8-2.98c0.97-2.7-2.4-5.63-6.46-5.47C1218.89,211.44,1216.76,212.44,1216.11,214.3z"/>
		
			<linearGradient id="SVGID_00000149378558862884914370000006308515846237082258_" gradientUnits="userSpaceOnUse" x1="1278.3766" y1="368.5833" x2="1378.452" y2="195.2475">
			<stop  offset="0" style="stop-color:#7ACFDD"/>
			<stop  offset="1" style="stop-color:#F69783"/>
		</linearGradient>
		<path style="fill:url(#SVGID_00000149378558862884914370000006308515846237082258_);" d="M1251.42,292.88
			c8.23-23.83,24.71-50.09,45.07-67.21c20.33-17.64,44.53-26.14,67.48-26.27c45.83-0.32,56.69,21.57,38.47,74.88
			c-15.38,43.59-50.68,98.42-103.31,95.5C1246.72,367.3,1237.68,332.85,1251.42,292.88z M1356.19,262.82
			c8.33-22.51,7.61-40.31-5.87-39.12c-13.49,0.78-32.45,22.28-40.49,45.01c-6.56,18.03-6.05,35.2,10.44,33.4
			C1336.76,300.4,1349.42,280.78,1356.19,262.82z M1373.41,206.49c-1.06,1.75,2.2,3.65,6.25,3.42c2.03-0.11,4.18-0.81,4.9-1.96
			c1.07-1.73-2.19-3.46-6.25-3.32C1376.28,204.7,1374.12,205.33,1373.41,206.49z"/>
		
			<linearGradient id="SVGID_00000041974542837966235650000014533609848698842783_" gradientUnits="userSpaceOnUse" x1="1420.4478" y1="363.8357" x2="1535.5785" y2="164.4233">
			<stop  offset="0" style="stop-color:#7ACFDD"/>
			<stop  offset="1" style="stop-color:#F69783"/>
		</linearGradient>
		<path style="fill:url(#SVGID_00000041974542837966235650000014533609848698842783_);" d="M1576.31,196.69
			c12.43-0.19,22.44,1.2,19.42,4.88c-0.3,0.37-1.15,0.85-1.78,1.35c-5.68,4.07-20.54,8.16-33.09,16.75
			c-16.2,9.49-42.72,45.84-53.92,70.38c-6.02,12.21-9.56,24.03-12.73,35.16c-7.9,27.96-12.88,48.54-44.13,47.74
			c-45.12-0.19-30.18-32.06-20.6-80.17c4.53-23.71,11.28-60.53,9.42-70.23c-1.45-8.75-9.57-12.76-8.67-16.85
			c0.05-0.37,0.23-0.62,0.42-0.87c2.92-4.01,20.53-5.97,37.7-6.3c17.17-0.27,33.88,0.92,32.82,5c-0.16,0.45-0.41,1.02-0.88,1.61
			c-2.57,3.23-9.59,7.09-13.45,13.52c-3.01,5.06-4.28,11.06-5.44,19.13c-2.42,15.35-8.56,49.03-3.93,49.43
			c4.82-0.66,22.94-34.82,36.88-50.27c7.31-8.68,13.39-14.33,17.05-20.2c3.48-5.49,2.95-8.95,5.28-11.83
			c0.58-0.72,1.07-1.3,2.1-1.98C1545.29,198.77,1562.53,196.95,1576.31,196.69z M1480.31,205.29c3.6-0.1,7.19-1.02,8.04-2.03
			c0.85-1.01-1.32-1.79-4.93-1.7c-3.61,0.08-7.29,1.01-8.14,2.04C1474.44,204.63,1476.71,205.39,1480.31,205.29z M1571.7,204.12
			c3.6,0.02,7.22-0.83,8.12-1.9c0.9-1.07-1.24-1.97-4.85-1.95c-3.61,0.02-7.33,0.9-8.22,1.94
			C1565.86,203.24,1568.1,204.1,1571.7,204.12z"/>
		
			<linearGradient id="SVGID_00000048467837480503161260000004769666315316711609_" gradientUnits="userSpaceOnUse" x1="1568.5652" y1="368.6869" x2="1684.33" y2="168.1763">
			<stop  offset="0" style="stop-color:#7ACFDD"/>
			<stop  offset="1" style="stop-color:#F69783"/>
		</linearGradient>
		<path style="fill:url(#SVGID_00000048467837480503161260000004769666315316711609_);" d="M1721.66,195.6
			c11.52-0.12,19.71,2.89,17.02,8.99c-0.54,1.2-1.63,2.6-3.29,4.17c-8.17,7.21-25.52,12.87-42.03,22.13
			c-7.22,4.12-18.16,9.1-27.55,18.27c-6.09,5.93-11.19,14.15-14.97,22.73c-3.57,8.09-6.14,16.66-7.47,23.02
			c-1.6,7.6,4.1,30.3-2.46,50.3c-5.15,15.47-17.91,30.14-48.07,29.82c-30.16-0.41-34.62-16.75-29.62-34.42
			c6.33-22.9,28.2-45.48,32.93-53.49c2.96-5.51,5.6-10.54,7.59-15.43c4.18-10.24,5.94-19.94,4.86-29.97
			c-1.06-9.56-2.47-16.03-4.31-20.31c-4.11-9.76-13.97-14.53-14.83-18.54c-0.18-0.62,0-1.1,0.4-1.58c2.79-3.27,17.3-4.84,32.44-5.07
			c17.17-0.28,39.48,1.99,40.36,8.36c0.11,2-0.58,3.85-1.93,6.03c-1.14,1.85-2.5,3.7-3.74,5.77c-1.44,2.42-2.97,5.41-3.48,8.83
			c-0.97,5.49-1.13,9.43,0.43,9.63c1.34,0.19,4.11-2.4,8.52-8.61c7.46-10.36,9.68-15.48,17.75-20.88
			C1689.48,199.26,1707.88,195.75,1721.66,195.6z M1636.95,206.75c-0.92,1.34,1.29,2.56,4.88,2.76c3.6,0.2,7.24-0.76,8.27-2.34
			c0.93-1.42-1.05-2.61-4.66-2.72C1641.84,204.33,1637.97,205.26,1636.95,206.75z M1714.62,209.69c3.6,0.29,7.27-0.98,8.24-2.97
			c1.07-2.2-1.11-3.88-4.72-4.01c-3.61-0.13-7.28,1.2-8.24,3.02C1708.84,207.76,1711.02,209.4,1714.62,209.69z"/>
	</g>
</g>
<g>
	<path class="st11" d="M880.57,434.32l-0.14,0.14c-12.04-9.41-26.02-14.12-41.94-14.12c-19.28,0-35.7,6.81-49.27,20.43
		c-13.57,13.62-20.36,30.02-20.36,49.21c0,19.19,6.79,35.59,20.36,49.21c13.57,13.62,30,20.43,49.27,20.43
		c15.93,0,29.91-4.7,41.94-14.12l0.14,0.14c0.09-0.09,0.18-0.18,0.27-0.27c2.71-2.71,5.97-4.07,9.77-4.07s7.06,1.36,9.77,4.07
		s4.07,5.97,4.07,9.77s-1.36,7.06-4.07,9.77c-0.09,0.09-0.18,0.18-0.27,0.27l0.14,0.14c-17.56,14.66-38.14,21.99-61.76,21.99
		c-26.88,0-49.82-9.5-68.82-28.51s-28.51-41.94-28.51-68.82c0-26.88,9.5-49.82,28.51-68.82s41.94-28.51,68.82-28.51
		c23.62,0,44.21,7.33,61.76,21.99l-0.14,0.14c0.09,0.09,0.18,0.18,0.27,0.27c2.71,2.71,4.07,5.97,4.07,9.77s-1.36,7.06-4.07,9.77
		s-5.97,4.07-9.77,4.07s-7.06-1.36-9.77-4.07C880.76,434.51,880.66,434.41,880.57,434.32z"/>
	<path class="st11" d="M972.72,438.26c-3.8,0-7.06-1.36-9.77-4.07s-4.07-5.97-4.07-9.77s1.36-7.06,4.07-9.77s5.97-4.07,9.77-4.07
		s7.06,1.36,9.77,4.07s4.07,5.97,4.07,9.77s-1.36,7.06-4.07,9.77S976.52,438.26,972.72,438.26z M972.72,587.31
		c-3.8,0-7.06-1.36-9.77-4.07s-4.07-5.97-4.07-9.77V464.87c0-3.8,1.36-7.06,4.07-9.77s5.97-4.07,9.77-4.07s7.06,1.36,9.77,4.07
		s4.07,5.97,4.07,9.77v108.59c0,3.8-1.36,7.06-4.07,9.77S976.52,587.31,972.72,587.31z"/>
	<path class="st11" d="M1110.2,451.56c19.09,1.09,34.79,7.78,47.1,20.09c13.03,13.03,19.64,28.78,19.82,47.24v52.4
		c0,5.25-1.36,9.23-4.07,11.95s-5.97,4.07-9.77,4.07s-7.06-1.36-9.77-4.07s-4.07-6.6-4.07-11.67v-52.4c0-0.81,0.04-1.63,0.14-2.44
		c-0.54-9.95-4.43-18.51-11.67-25.66c-7.87-7.87-17.38-11.81-28.51-11.81h-0.54c-11.13,0-20.63,3.94-28.51,11.81
		c-7.24,7.15-11.13,15.7-11.67,25.66c0.09,0.81,0.14,1.63,0.14,2.44v52.4c0,5.07-1.36,8.96-4.07,11.67s-5.97,4.07-9.77,4.07
		s-7.06-1.36-9.77-4.07s-4.07-6.7-4.07-11.95v-52.4c0.18-18.46,6.79-34.21,19.82-47.24c12.31-12.31,28.01-19,47.1-20.09H1110.2z"/>
	<path class="st11" d="M1316.23,482.65c-4.98-2.26-10.45-3.39-16.42-3.39c-11.13,0-20.63,3.92-28.51,11.74
		c-7.87,7.83-11.81,17.31-11.81,28.44c0,11.13,3.94,20.63,11.81,28.51s17.38,11.81,28.51,11.81c11.04,0,20.5-3.89,28.37-11.67
		c0.09-0.09,0.18-0.18,0.27-0.27c2.62-2.62,5.84-3.94,9.64-3.94s7.06,1.34,9.77,4c2.71,2.67,4.07,5.91,4.07,9.71
		s-1.36,7.06-4.07,9.77c-0.09,0.09-0.18,0.18-0.27,0.27c-13.12,13.12-29.05,19.68-47.78,19.68s-34.71-6.6-47.92-19.82
		c-13.21-13.21-19.82-29.18-19.82-47.92c0-18.73,6.6-34.7,19.82-47.92c13.21-13.21,29.18-19.82,47.92-19.82s34.66,6.56,47.78,19.68
		l-0.14,0.14c0,0.09,0.04,0.14,0.14,0.14c2.62,2.63,3.94,5.84,3.94,9.64c0,3.71-1.31,6.88-3.94,9.5l-38.82,38.55
		c-2.71,2.63-5.97,3.94-9.77,3.94c-3.89,0-7.19-1.31-9.91-3.94c-2.63-2.71-3.94-6.02-3.94-9.91c0-3.8,1.31-7.06,3.94-9.77
		L1316.23,482.65z"/>
	<path class="st11" d="M1408.77,518.89c0.18-18.46,6.79-34.21,19.82-47.24c13.21-13.21,29.18-19.82,47.92-19.82
		s34.7,6.61,47.92,19.82c13.21,13.21,19.82,29.18,19.82,47.92c0,18.73-6.61,34.71-19.82,47.92c-13.21,13.21-29.18,19.82-47.92,19.82
		c-15.11,0-28.46-4.34-40.04-13.03v53.48c0,3.8-1.36,7.06-4.07,9.77s-5.97,4.07-9.77,4.07s-7.06-1.36-9.77-4.07
		s-4.07-5.97-4.07-9.77V518.89z M1436.33,516.72c0.09,0.81,0.14,1.63,0.14,2.44v5.16c1,9.05,4.84,16.92,11.54,23.62
		c7.87,7.87,17.38,11.81,28.51,11.81s20.61-3.94,28.44-11.81c7.83-7.87,11.74-17.38,11.74-28.51c0-11.13-3.92-20.61-11.74-28.44
		c-7.83-7.83-17.31-11.74-28.44-11.74s-20.63,3.89-28.51,11.67C1440.76,498.17,1436.87,506.77,1436.33,516.72z"/>
	<path class="st11" d="M1623.36,415.73c2.71,2.71,4.07,5.97,4.07,9.77v147.96c0,3.8-1.36,7.06-4.07,9.77s-5.97,4.07-9.77,4.07
		s-7.06-1.36-9.77-4.07s-4.07-5.97-4.07-9.77V425.5c0-3.8,1.36-7.06,4.07-9.77s5.97-4.07,9.77-4.07S1620.64,413.01,1623.36,415.73z"
		/>
	<path class="st11" d="M1766.13,482.65c-4.98-2.26-10.45-3.39-16.42-3.39c-11.13,0-20.63,3.92-28.51,11.74
		c-7.87,7.83-11.81,17.31-11.81,28.44c0,11.13,3.94,20.63,11.81,28.51s17.38,11.81,28.51,11.81c11.04,0,20.5-3.89,28.37-11.67
		c0.09-0.09,0.18-0.18,0.27-0.27c2.62-2.62,5.84-3.94,9.64-3.94s7.06,1.34,9.77,4c2.71,2.67,4.07,5.91,4.07,9.71
		s-1.36,7.06-4.07,9.77c-0.09,0.09-0.18,0.18-0.27,0.27c-13.12,13.12-29.05,19.68-47.78,19.68s-34.71-6.6-47.92-19.82
		c-13.21-13.21-19.82-29.18-19.82-47.92c0-18.73,6.6-34.7,19.82-47.92c13.21-13.21,29.18-19.82,47.92-19.82s34.66,6.56,47.78,19.68
		l-0.14,0.14c0,0.09,0.04,0.14,0.14,0.14c2.62,2.63,3.94,5.84,3.94,9.64c0,3.71-1.31,6.88-3.94,9.5l-38.82,38.55
		c-2.71,2.63-5.97,3.94-9.77,3.94c-3.89,0-7.19-1.31-9.91-3.94c-2.63-2.71-3.94-6.02-3.94-9.91c0-3.8,1.31-7.06,3.94-9.77
		L1766.13,482.65z"/>
	<path class="st11" d="M1907.41,519.43l-44.79-44.66c-2.63-2.62-3.94-5.84-3.94-9.64c0-3.71,1.33-6.9,4-9.57
		c2.67-2.67,5.86-4,9.57-4c3.8,0,7.01,1.31,9.64,3.94l44.79,44.66l44.52-44.52l0.14-0.14c2.62-2.62,5.79-3.94,9.5-3.94
		c3.8,0,7.01,1.34,9.64,4c2.62,2.67,3.94,5.86,3.94,9.57c0,3.8-1.31,7.01-3.94,9.64c-0.36,0.36-0.77,0.73-1.22,1.09l-43.44,43.57
		l44.66,44.66c2.62,2.71,3.94,5.93,3.94,9.64c0,3.8-1.31,7.01-3.94,9.64c-2.63,2.63-5.84,3.94-9.64,3.94
		c-3.71,0-6.92-1.31-9.64-3.94l-44.66-44.66l-44.39,44.52c-2.53,2.71-5.84,4.07-9.91,4.07c-3.71,0-6.9-1.31-9.57-3.94
		c-2.67-2.62-4-5.84-4-9.64c0-3.71,1.36-6.92,4.07-9.64L1907.41,519.43z"/>
</g>
</svg>
