<svg xmlns="http://www.w3.org/2000/svg" viewBox="0 0 1002.48 1016.25"><defs><style>.cls-1{fill:#4a4742;}.cls-2{fill:#5c95cf;}.cls-3{fill:#ea3a68;}.cls-4{fill:#a3a3a3;}.cls-5{fill:#e32126;}.cls-6{fill:#fff;}</style></defs><g id="Layer_2" data-name="Layer 2"><path class="cls-1" d="M641,1029.92s103.7-26.41,149.74-66c0,0-3.54-16.69,16.76-25.35,10.15-4.32,23-5.27,33.41-5.15a145.24,145.24,0,0,1,18.18,1.33c84.36-16,153.84-63.5,153.84-63.5,3.41-4.18-27.07-19-27.07-19s-11.84,3.86-54.08-13.8-74.29-33-137.37-6.08S774.9,896.33,786,908s.43,16,.43,16l-3,1.26s-10.17,4.58-30.59-3.12-83.59-36.4-146.67-9.48S566.67,958.54,592.85,983s16.63,29.77,16.63,29.77S632.38,1030.87,641,1029.92ZM794,894.53c-35.15-33.36-8.14-43.65,13.63-53.28s56.81-27,120.86,4.09c0,0,47.54,15.91,39.74,32.27,0,0-23.81,33.6-112.59,46.16C855.6,923.77,829.11,927.89,794,894.53ZM606.72,982.62c-47.92-37.94-8.31-52.46,14.11-61.69s47.07-21,104.67,2.82,44.86,36.39,44.86,36.39c-40.22,42.48-109,48.37-109,48.37C628.59,1009.47,606.72,982.62,606.72,982.62Z" transform="translate(-10.72 -18.99)"/><path class="cls-2" d="M754.13,974.4c-40.1,29.59-92.77,34.11-92.77,34.11-28.34.83-48.53-19.14-53.48-24.56,12.47-7.11,27.39-16.2,35.52-23.27L670,972.59s28.6-5.78,32.68-8.51,26.9,14,26.9,14Z" transform="translate(-10.72 -18.99)"/><path class="cls-3" d="M889.14,917.41c-10,2.43-21.13,4.6-33.54,6.35,0,0-23.74,3.7-56.1-24.21l4.92-16.15L839.14,895l25.2-5.45-1.71,12.6,17-8.85Z" transform="translate(-10.72 -18.99)"/><path class="cls-3" d="M968.19,877.6s-6.09,8.59-23.58,18.71l4.15-12.91,3.75-15.32-12.26,4.43c2-6.81-17.7-24.85-17.7-24.85l-20.77,2.72L880.34,837l-23.49,9.32-27.08-13.86c21.89-6.77,52.86-9.31,98.67,12.9C928.44,845.34,976,861.25,968.19,877.6Z" transform="translate(-10.72 -18.99)"/><polygon class="cls-2" points="254.76 954.28 286.93 936.67 352.8 945.48 299.18 965.62 254.76 954.28"/><polygon class="cls-3" points="167.97 864.34 218.52 852.08 242.27 875.83 291.29 888.08 217.76 902.56 178.69 881.19 159.54 881.96 167.97 864.34"/><polygon class="cls-3" points="410.55 951.14 371.49 1016.25 430.47 987.91 456.51 983.7 516.25 967.23 435.06 962.63 410.55 951.14"/><polygon class="cls-2" points="352.8 892.68 421.74 887.36 459.27 909.53 463.1 922.51 404.12 922.51 368.88 901.54 352.8 892.68"/><polygon class="cls-3" points="201.06 960.41 152.04 976.52 166.6 986.46 201.06 973.43 217.91 968.84 201.06 960.41"/><polygon class="cls-2" points="140.17 906.66 78.13 901.64 47.49 926.15 0 930.59 50.55 943.38 119.49 938.41 144 943.38 140.17 906.66"/><polygon class="cls-4" points="681.62 0 350.75 0 116.79 233.96 116.79 564.83 350.75 798.78 681.62 798.78 915.58 564.83 915.58 233.96 681.62 0"/><polygon class="cls-5" points="663.91 42.75 368.46 42.75 159.54 251.67 159.54 547.12 368.46 756.03 663.91 756.03 872.82 547.12 872.82 251.67 663.91 42.75"/><path class="cls-6" d="M738.37,230.62V524.45a34.72,34.72,0,0,1-1.31,9.51c-3.22,139-79.83,217.57-205.43,217.57-128.33,0-182.12-125.93-182.12-125.93L344.93,616a47.65,47.65,0,0,1-2.45-4.71L264.85,440.36A49.35,49.35,0,0,1,289.3,375.2a48.67,48.67,0,0,1,20.2-4.38,49.38,49.38,0,0,1,45,28.84l34.36,75.65V188.48a35.23,35.23,0,0,1,70.45,0V409.21a11.34,11.34,0,0,0,22.68,0V120.45a35.22,35.22,0,0,1,70.43,0V399.57a11.34,11.34,0,0,0,22.68,0V160a35.22,35.22,0,0,1,70.44,0V410.54a10,10,0,0,0,20,0V230.62a35.32,35.32,0,0,1,35.22-35.22h2.41A35.32,35.32,0,0,1,738.37,230.62Z" transform="translate(-10.72 -18.99)"/><path class="cls-5" d="M453.06,505.25c0,5.62-1.53,13.79-3.23,20.76-1.19,4.94-1.53,11.06-1.53,17.36v3.91c0,5.28.17,13.27,2,13.27,6,0,8-14.63,15.32-14.63,4.76,0,8,6.47,8,14.8,0,10.21-5.1,23.15-11.74,28.59-1.87,1.53-2.72,1.87-2.72,2.72a9.32,9.32,0,0,0,1,2.73,31.37,31.37,0,0,1,3.23,12.59c0,8.68-6.63,16-30.28,16s-30.29-7.14-30.29-16a28.08,28.08,0,0,1,1.7-8.85c.85-2.55,1.7-4.08,1.7-5.11,0-1.36-1.7-1.36-7.32-1.36H378.53c-11.57,0-20.24-1-20.24-5.44,0-14.81,25.86-82.36,66.7-89.5a85.37,85.37,0,0,1,12.93-.85H442C449.66,496.24,453.06,498.28,453.06,505.25Zm-37.94,21.1c-3.57,0-12.76,19.4-12.76,27.91,0,3.23,5.95,4.76,11.74,4.76,3.06,0,3.4-4.25,3.4-8.5v-3.58C417.5,543.37,417.16,526.35,415.12,526.35Zm18.38-21.78v.51c.34,1.19,2,1.88,3.91,1.88,2.38,0,5.78-1.2,5.78-3.24,0-.17-.17-.51-.17-.68-.34-1.19-1.87-1.87-3.74-1.87C436.73,501.17,433.5,502.7,433.5,504.57Z" transform="translate(-10.72 -18.99)"/><path class="cls-5" d="M481.65,566.34c0-34.37,22-71.81,55.3-71.81s55.3,36.93,55.3,71.3c0,29.61-16.51,57.34-55.64,57.34C497.64,623.17,481.65,595.78,481.65,566.34Zm70.27-11.4c0-16.34-6.46-34.37-15.14-34.37S522,538.6,522,554.77c0,13.27,4.09,25.52,14.81,25.52S551.92,568.21,551.92,554.94Zm-7.66-51.22c0,2,3.41,4.43,6.47,4.43,1.53,0,2.89-.68,2.89-2,0-2-3.4-4.42-6.46-4.42C545.63,501.68,544.26,502.36,544.26,503.72Z" transform="translate(-10.72 -18.99)"/><path class="cls-5" d="M648.23,528.91c0-5.79-3.4-7.83-7.83-7.83-9.19,0-12.93,8.68-13.95,10.55-2.89,3.57-5.45,6.8-10,6.8-5.62,0-8-6.46-8-13.61,0-12.76,8.34-26.88,16-26.88h53.43c11.57,0,22.12,1,22.12,6.46,0,8.85-11.57,21.78-21.44,35.91-1,1.53-1.87,2.38-1.87,3.23,0,.68.51,1.53,2,2.55,7.31,5.28,20.42,11.23,20.42,32.33s-15.83,44.75-54.62,44.75c-25,0-41.69-8.68-41.69-38.62,0-12.25,5.1-23.48,14.29-23.48,12.08,0,15.14,19.22,31.48,19.22,3.91,0,6.3-2.55,6.3-6.63,0-11.74-21.1-18.55-21.1-25.36,0-5.61,6.63-5.1,10.38-8.33C648.06,536.73,648.23,530.27,648.23,528.91Zm40.5-20.76c0-1.53-2.05-2.73-4.6-2.73-2,0-5.1.85-5.1,3.07,0,1.53,2,2.72,4.59,2.72C685.66,511.21,688.73,510.36,688.73,508.15Z" transform="translate(-10.72 -18.99)"/></g></svg>