<svg id="Layer_1" data-name="Layer 1" xmlns="http://www.w3.org/2000/svg" viewBox="0 0 1312.35 933.78"><defs><style>.cls-1{fill:#f4cfc3;}.cls-2{fill:#eab065;stroke:#f6b228;stroke-miterlimit:10;}.cls-3{fill:#26b352;}.cls-4{fill:#f4dea2;}.cls-5{fill:#dcc794;}.cls-6{fill:#e1bd68;}.cls-7{fill:#4a4742;}.cls-8{fill:#5c95cf;}.cls-9{fill:#ea3a68;}.cls-10{fill:#9d3d97;}</style></defs><path class="cls-1" d="M383.39,133.57c0,20.55-5.6,50.45-11.83,76C367.2,227.62,366,250,366,273.09v14.33c0,19.31.62,48.58,7.47,48.58,21.8,0,29.28-53.57,56.06-53.57,17.44,0,29.28,23.67,29.28,54.19,0,37.37-18.69,84.71-43,104.64-6.85,5.61-10,6.85-10,10,0,1.87,1.25,4.36,3.74,10,6.85,14.95,11.84,31.15,11.84,46.1,0,31.76-24.3,58.54-110.87,58.54s-110.87-26.16-110.87-58.54c0-10.59,2.49-21.18,6.23-32.39,3.11-9.35,6.22-14.95,6.22-18.69,0-5-6.22-5-26.78-5H110.58c-42.36,0-74.12-3.74-74.12-19.93,0-54.19,94.67-301.47,244.16-327.63,16.19-2.49,32.39-3.11,47.34-3.11H342.9C370.93,100.56,383.39,108,383.39,133.57ZM244.49,210.8c-13.08,0-46.71,71-46.71,102.15,0,11.84,21.8,17.44,43,17.44,11.21,0,12.45-15.57,12.45-31.14V286.17C253.21,273.09,252,210.8,244.49,210.8Zm67.27-79.72V133c1.25,4.36,7.47,6.85,14.33,6.85,8.72,0,21.18-4.36,21.18-11.84,0-.62-.63-1.86-.63-2.49-1.24-4.36-6.85-6.85-13.7-6.85C323.6,118.62,311.76,124.23,311.76,131.08Z" transform="translate(-36.46 -21.82)"/><path class="cls-1" d="M488,357.18c0-125.82,80.35-262.85,202.43-262.85s202.43,135.16,202.43,261c0,108.38-60.42,209.9-203.68,209.9C546.57,565.21,488,464.93,488,357.18Zm257.24-41.74c0-59.79-23.67-125.81-55.44-125.81s-54.19,66-54.19,125.19c0,48.58,15,93.43,54.19,93.43S745.26,364,745.26,315.44ZM717.23,128c0,7.48,12.46,16.2,23.67,16.2,5.61,0,10.59-2.49,10.59-7.48,0-7.47-12.46-16.19-23.67-16.19C722.21,120.49,717.23,123,717.23,128Z" transform="translate(-36.46 -21.82)"/><path class="cls-1" d="M1273.44,133.57c0,20.55-5.61,50.45-11.83,76-4.37,18.06-5.61,40.48-5.61,63.53v14.33c0,19.31.62,48.58,7.47,48.58,21.8,0,29.28-53.57,56.06-53.57,17.44,0,29.28,23.67,29.28,54.19,0,37.37-18.69,84.71-43,104.64-6.85,5.61-10,6.85-10,10,0,1.87,1.25,4.36,3.74,10,6.85,14.95,11.83,31.15,11.83,46.1,0,31.76-24.29,58.54-110.86,58.54s-110.88-26.16-110.88-58.54c0-10.59,2.5-21.18,6.24-32.39,3.11-9.35,6.22-14.95,6.22-18.69,0-5-6.22-5-26.78-5h-74.74c-42.36,0-74.12-3.74-74.12-19.93,0-54.19,94.67-301.47,244.16-327.63,16.19-2.49,32.39-3.11,47.33-3.11h15C1261,100.56,1273.44,108,1273.44,133.57Zm-138.9,77.23c-13.08,0-46.71,71-46.71,102.15,0,11.84,21.8,17.44,43,17.44,11.22,0,12.46-15.57,12.46-31.14V286.17C1143.26,273.09,1142,210.8,1134.54,210.8Zm67.27-79.72V133c1.25,4.36,7.48,6.85,14.33,6.85,8.72,0,21.17-4.36,21.17-11.84,0-.62-.62-1.86-.62-2.49-1.25-4.36-6.85-6.85-13.7-6.85C1213.64,118.62,1201.81,124.23,1201.81,131.08Z" transform="translate(-36.46 -21.82)"/><path class="cls-2" d="M879,196.06c-76.71,202.67-86.9,482.64-86.9,482.64-29.75,17.64-56.1-13.15-56.1-13.15,35.47-269.23,87.24-422.36,120.26-498.18,13.81-19.09,26.65-35.92,32.08-41.16C888.38,126.21,882.63,162.58,879,196.06Z" transform="translate(-36.46 -21.82)"/><path class="cls-3" d="M909.23,107.88s44.11-62.2,151.61-46.8l-18.37,12s44.75,3.06,64.75,28.05L1047,108.73l2.3,18.06S943.31,138.35,909.23,107.88Z" transform="translate(-36.46 -21.82)"/><path class="cls-3" d="M913.24,139.24s41.75,48.91,47.07,70.38l-6,.85S968,264.1,965.38,272.89L954.82,266s-7.47,55.83-14.73,64.13c0,0-11.28-69.29-20.36-87.55l-9.24,5.13s-19.59-71.18-12-85.65Z" transform="translate(-36.46 -21.82)"/><path class="cls-3" d="M901.39,106.21s19.46-27.39,11.55-50.48-15.85-22.46-15.85-22.46l-4,7.4L881.87,21.82S875.61,87,901.39,106.21Z" transform="translate(-36.46 -21.82)"/><path class="cls-3" d="M887.68,108s-14.08-50.66-34.1-60.73V51s-36.86-24.5-56.84-25.21L798.11,29s-39.65-3.56-84.76,16.13c0,0,41.56,17.09,52.46,17l-5,2.74S818.61,79,829.07,86.09l-.67-5.27S886.11,104.57,887.68,108Z" transform="translate(-36.46 -21.82)"/><path class="cls-3" d="M888.35,113.18s-168.62-32.88-225.27,63l15.75-8.5s-28.18,49.09-27.16,63.11c0,0,34.62-49.53,58.52-54.1l-5,11.73s46.31-20.8,57.3-33.67S846.33,116.6,888.35,113.18Z" transform="translate(-36.46 -21.82)"/><path class="cls-3" d="M911.37,124.74s82.06,18.86,90.51,41.64l-9.76,3.11s10.66,19.7,7.42,28.3c0,0-14.86-10.4-19.92-17.55l-8.89,9.6Z" transform="translate(-36.46 -21.82)"/><path class="cls-4" d="M1068.34,819.19c-6.95,11.51-15.66,22.24-25.14,25.4-23,7.66-107.23-33.7-139.4-27.54s-38.3,41.33-55.15,41.33-88.85-30.64-108.77-26.82S649.5,866,620.4,867.57s-72-27.57-107.24-36-114.89,26.82-142.47,26.82c-11.95,0-31.39-17.28-49.58-36.84C641.19,518.59,928.49,692.61,1068.34,819.19Z" transform="translate(-36.46 -21.82)"/><path class="cls-5" d="M1158.1,914.85c-557.62,91.69-923.75,0-923.75,0a1048.43,1048.43,0,0,1,86.76-93.31c18.19,19.56,37.63,36.84,49.58,36.84,27.58,0,107.24-35.27,142.47-26.82s78.13,37.54,107.24,36,99.57-32.2,119.48-36,91.92,26.82,108.77,26.82,23-35.17,55.15-41.33,116.43,35.2,139.4,27.54c9.48-3.16,18.19-13.89,25.14-25.4C1125.56,871,1158.1,914.85,1158.1,914.85Z" transform="translate(-36.46 -21.82)"/><path class="cls-2" d="M525.64,330.23C582,479.06,589.45,684.64,589.45,684.64c21.86,13,41.2-9.65,41.2-9.65-26-197.7-64.06-310.16-88.31-365.83-10.14-14-19.57-26.37-23.55-30.23C518.79,278.93,523,305.64,525.64,330.23Z" transform="translate(-36.46 -21.82)"/><path class="cls-3" d="M503.47,265.48s-32.38-45.68-111.33-34.37l13.49,8.78s-32.86,2.24-47.55,20.59l44.22,5.62-1.69,13.27S478.45,287.85,503.47,265.48Z" transform="translate(-36.46 -21.82)"/><path class="cls-3" d="M500.53,288.5S469.88,324.42,466,340.19l4.41.62s-10,39.38-8.13,45.84l7.75-5.1s5.48,41,10.81,47.09c0,0,8.29-50.88,15-64.29l6.78,3.77s14.39-52.27,8.85-62.89Z" transform="translate(-36.46 -21.82)"/><path class="cls-3" d="M509.24,264.25s-14.3-20.11-8.49-37.07,11.64-16.49,11.64-16.49l3,5.43,8.22-13.84S528.16,250.13,509.24,264.25Z" transform="translate(-36.46 -21.82)"/><path class="cls-3" d="M519.3,265.53s10.34-37.2,25-44.6v2.75s27.07-18,41.74-18.51l-1,2.4s29.12-2.62,62.24,11.84c0,0-30.51,12.55-38.51,12.52l3.67,2S570,244.27,562.34,249.47l.49-3.87S520.45,263.05,519.3,265.53Z" transform="translate(-36.46 -21.82)"/><path class="cls-3" d="M518.81,269.36s123.82-24.14,165.42,46.3l-11.57-6.24s20.7,36,20,46.34c0,0-25.43-36.37-43-39.72l3.68,8.61s-34-15.27-42.07-24.72S549.66,271.88,518.81,269.36Z" transform="translate(-36.46 -21.82)"/><path class="cls-3" d="M501.9,277.86s-60.25,13.84-66.46,30.58l7.17,2.28s-7.83,14.47-5.45,20.78c0,0,10.91-7.64,14.63-12.89l6.52,7.05Z" transform="translate(-36.46 -21.82)"/><circle class="cls-6" cx="369.22" cy="810.97" r="3.93"/><circle class="cls-6" cx="393.21" cy="808.65" r="3.93"/><circle class="cls-6" cx="381.64" cy="796.39" r="3.93"/><circle class="cls-6" cx="777.87" cy="813.54" r="3.93"/><circle class="cls-6" cx="801.13" cy="819.87" r="3.93"/><circle class="cls-6" cx="794.65" cy="804.3" r="3.93"/><circle class="cls-6" cx="554.97" cy="812.99" r="3.93"/><circle class="cls-6" cx="575.6" cy="825.46" r="3.93"/><circle class="cls-6" cx="573.64" cy="808.71" r="3.93"/><circle class="cls-6" cx="965.34" cy="804.17" r="3.93"/><circle class="cls-6" cx="982.74" cy="787.5" r="3.93"/><circle class="cls-6" cx="966.07" cy="785.03" r="3.93"/><path class="cls-7" d="M831.79,604.16s-42.68-8.87-77.33,1.06c0,0-8.44,9-18.76,9a18.5,18.5,0,0,1-11.86-4.53,21.56,21.56,0,0,1-4.13-4.52c-31.63-9.93-77-1.06-77-1.06-3.27,1.35-3.44,15.19-3.44,15.19s5.35.59,6.73,18.34,1.36,32.16,33.42,32.16S720.68,642.18,724.3,634s8.88-8,8.88-8h1.51s5.3-.12,6.45,8,1.92,35.83,34,35.83,36.41-14.43,43.18-32.16,12.3-18.34,12.3-18.34S834.64,605.51,831.79,604.16ZM714.55,639c-9.35,24.05-22.39,23.44-33.65,23.61S650.49,664,650.79,635c0,0-3.79-18,7.51-24.48,0,0,25.3-11.66,56.18.94C714.48,611.42,723.9,615,714.55,639Zm99.8-4.07c-8.5,29-27.3,27.85-38.51,27.68s-24.42.44-26.48-23.61,8.45-27.61,8.45-27.61c34.7-12.6,56.47-.94,56.47-.94C823.61,617,814.35,635,814.35,635Z" transform="translate(-36.46 -21.82)"/><path class="cls-8" d="M814.35,635c-8.5,29-27.3,27.85-38.51,27.68s-24.42.44-26.48-23.61,8.45-27.61,8.45-27.61c34.7-12.6,56.47-.94,56.47-.94C823.61,617,814.35,635,814.35,635Z" transform="translate(-36.46 -21.82)"/><path class="cls-9" d="M714.55,639c-9.35,24.05-22.39,23.44-33.65,23.61S650.49,664,650.79,635c0,0-3.79-18,7.51-24.48,0,0,25.3-11.66,56.18.94C714.48,611.42,723.9,615,714.55,639Z" transform="translate(-36.46 -21.82)"/><polygon class="cls-10" points="801.13 550.14 801.86 557.49 822.93 548.61 809.14 578.69 840.91 565.3 841.84 557.98 822.69 566.23 836 544.13 827.48 537.76 801.13 550.14"/><polygon class="cls-10" points="848.7 500.95 844.57 508.88 871.78 513.81 837.96 535.17 878.97 542.59 884.75 535.79 859.9 531.5 887.98 517.9 883.56 505.82 848.7 500.95"/><polygon class="cls-10" points="885.03 454.14 881.84 465.09 917.12 464.51 880.08 499.63 933.25 498.76 938.8 488.81 906.64 489.6 938.42 465.62 929.88 451.59 885.03 454.14"/></svg>